<?xml version="1.0" standalone="no"?>
<!DOCTYPE svg PUBLIC "-//W3C//DTD SVG 20010904//EN"
 "http://www.w3.org/TR/2001/REC-SVG-20010904/DTD/svg10.dtd">
<svg version="1.0" xmlns="http://www.w3.org/2000/svg"
 width="260.000000pt" height="260.000000pt" viewBox="0 0 260.000000 260.000000"
 preserveAspectRatio="xMidYMid meet">
<metadata>
Created by potrace 1.11, written by Peter Selinger 2001-2013
</metadata>
<g transform="translate(0.000000,260.000000) scale(0.100000,-0.100000)"
fill="#000000" stroke="none">
<path d="M463 2564 c-9 -25 -10 -97 -1 -116 4 -9 35 -36 68 -59 33 -23 60 -48
60 -55 0 -8 4 -14 8 -14 12 0 43 -80 36 -91 -3 -5 -1 -9 3 -9 5 0 9 -8 10 -17
0 -10 4 -29 8 -43 3 -14 8 -32 10 -40 2 -8 4 -17 5 -20 1 -3 3 -9 4 -15 1 -5
5 -21 9 -35 6 -23 73 -294 81 -330 2 -8 9 -33 14 -55 6 -22 13 -51 16 -65 3
-14 12 -54 21 -90 9 -36 18 -72 20 -80 2 -8 4 -15 5 -15 2 0 10 -37 12 -62 1
-13 5 -23 8 -23 3 0 6 -8 7 -18 1 -9 29 -127 63 -262 34 -135 63 -254 65 -265
6 -24 11 -44 26 -105 6 -25 12 -53 14 -63 2 -9 6 -21 9 -26 3 -4 8 -23 10 -42
11 -78 120 -485 134 -501 12 -14 31 -18 81 -18 36 0 71 4 77 8 15 10 37 53 30
59 -3 3 -1 13 4 23 5 9 12 29 15 43 3 15 8 39 11 54 3 16 7 33 8 38 1 6 5 19
9 30 6 18 11 42 22 100 3 11 9 38 15 60 6 22 13 51 16 65 3 14 7 33 10 42 3 9
7 25 9 35 2 10 13 54 25 98 12 44 23 90 25 102 2 11 6 30 9 41 4 11 9 31 12
44 3 13 6 28 8 33 2 6 7 28 11 50 12 55 12 55 14 58 2 1 4 11 6 22 2 11 16 67
30 125 14 58 28 114 30 125 3 11 25 103 50 205 26 102 48 194 50 205 8 35 15
64 20 85 3 11 7 29 10 40 3 11 7 28 9 38 2 9 11 44 19 77 9 33 18 71 21 85 16
81 58 240 72 272 19 43 56 79 112 107 45 23 52 36 52 97 0 88 16 84 -293 84
-150 0 -278 -4 -286 -9 -20 -13 -24 -110 -6 -137 8 -12 33 -31 57 -43 43 -20
80 -55 85 -78 9 -39 9 -49 3 -63 -7 -14 -24 -81 -35 -138 -2 -13 -7 -32 -10
-42 -3 -10 -7 -27 -9 -37 -2 -10 -14 -56 -26 -103 -12 -47 -23 -92 -25 -100
-2 -8 -22 -91 -45 -185 -23 -93 -44 -177 -45 -185 -2 -8 -4 -15 -5 -15 -1 0
-4 -11 -6 -24 -2 -14 -12 -52 -20 -85 -9 -34 -17 -68 -19 -76 -10 -49 -38
-150 -41 -148 -1 2 -5 15 -8 28 -2 14 -20 90 -40 170 -20 79 -39 156 -42 170
-8 37 -12 55 -14 55 -1 0 -3 9 -5 20 -7 38 -17 80 -21 95 -3 8 -5 15 -5 15 0
0 -4 18 -10 40 -5 22 -12 51 -15 65 -2 14 -7 32 -11 40 -3 8 -7 22 -8 30 -1 8
-16 71 -33 140 -18 69 -34 134 -37 145 -2 11 -12 49 -20 85 -32 125 -27 144
46 190 54 35 56 39 54 100 -3 87 27 80 -366 80 -313 0 -350 -2 -356 -16z"/>
</g>
</svg>
